# This file uses centimeters as units for non-parametric coordinates.

mtllib Cube.mtl
g default
v 0.013869 0.183901 0.140449
v 0.314179 0.364050 -0.133709
v 0.013869 0.555587 0.384684
v 0.314179 0.735736 0.110527
v -0.314179 0.720503 0.133709
v -0.013869 0.900652 -0.140449
v -0.314179 0.348817 -0.110527
v -0.013869 0.528966 -0.384684
vt 0.375000 0.000000
vt 0.625000 0.000000
vt 0.375000 0.250000
vt 0.625000 0.250000
vt 0.375000 0.500000
vt 0.625000 0.500000
vt 0.375000 0.750000
vt 0.625000 0.750000
vt 0.375000 1.000000
vt 0.625000 1.000000
vt 0.875000 0.000000
vt 0.875000 0.250000
vt 0.125000 0.000000
vt 0.125000 0.250000
vn 0.737604 -0.370807 0.564308
vn 0.737604 -0.370807 0.564308
vn 0.737604 -0.370807 0.564308
vn 0.737604 -0.370807 0.564308
vn -0.000000 0.835722 0.549153
vn -0.000000 0.835722 0.549153
vn -0.000000 0.835722 0.549153
vn -0.000000 0.835722 0.549153
vn -0.737604 0.370807 -0.564308
vn -0.737604 0.370807 -0.564308
vn -0.737604 0.370807 -0.564308
vn -0.737604 0.370807 -0.564308
vn 0.000000 -0.835722 -0.549153
vn 0.000000 -0.835722 -0.549153
vn 0.000000 -0.835722 -0.549153
vn 0.000000 -0.835722 -0.549153
vn 0.675234 0.405058 -0.616431
vn 0.675234 0.405058 -0.616431
vn 0.675234 0.405058 -0.616431
vn 0.675234 0.405058 -0.616431
vn -0.675234 -0.405057 0.616431
vn -0.675234 -0.405057 0.616431
vn -0.675234 -0.405057 0.616431
vn -0.675234 -0.405057 0.616431
s off
g pCube1
usemtl initialShadingGroup
f 1/1/1 2/2/2 4/4/3 3/3/4
f 3/3/5 4/4/6 6/6/7 5/5/8
f 5/5/9 6/6/10 8/8/11 7/7/12
f 7/7/13 8/8/14 2/10/15 1/9/16
f 2/2/17 8/11/18 6/12/19 4/4/20
f 7/13/21 1/1/22 3/3/23 5/14/24
